<mxfile host="Electron" agent="Mozilla/5.0 (Windows NT 10.0; Win64; x64) AppleWebKit/537.36 (KHTML, like Gecko) draw.io/25.0.2 Chrome/128.0.6613.186 Electron/32.2.5 Safari/537.36" version="25.0.2">
  <diagram id="3FK3p_lkyRsDjbPzlv02" name="Page-1">
    <mxGraphModel dx="-274" dy="-2965" grid="1" gridSize="10" guides="1" tooltips="1" connect="1" arrows="1" fold="1" page="1" pageScale="1" pageWidth="850" pageHeight="1100" math="0" shadow="0">
      <root>
        <mxCell id="0" />
        <mxCell id="1" parent="0" />
        <mxCell id="HfNNH7PvpU9uhESRJS_I-2" value="Tags" style="swimlane;whiteSpace=wrap;html=1;shadow=0;dashed=0;strokeWidth=1;align=center;verticalAlign=top;fontFamily=Helvetica;fontSize=12;fontColor=#FFFFFF;fillColor=#660000;movable=1;resizable=1;rotatable=1;deletable=1;editable=1;locked=0;connectable=1;strokeColor=#666666;swimlaneFillColor=#FFFFFF;" vertex="1" parent="1">
          <mxGeometry x="940" y="3610" width="510" height="330" as="geometry" />
        </mxCell>
        <mxCell id="HfNNH7PvpU9uhESRJS_I-3" value="Location" style="html=1;shadow=0;dashed=0;shape=mxgraph.bootstrap.rrect;rSize=5;strokeColor=none;strokeWidth=1;fillColor=#6C767D;fontColor=#ffffff;whiteSpace=wrap;align=left;verticalAlign=middle;fontStyle=0;fontSize=12;spacingLeft=20;spacingRight=20;" vertex="1" parent="HfNNH7PvpU9uhESRJS_I-2">
          <mxGeometry x="10.769999999999982" y="69" width="100" height="25" as="geometry" />
        </mxCell>
        <mxCell id="HfNNH7PvpU9uhESRJS_I-4" value="" style="group" vertex="1" connectable="0" parent="HfNNH7PvpU9uhESRJS_I-2">
          <mxGeometry x="9.999999999999947" y="46.5" width="100" height="17" as="geometry" />
        </mxCell>
        <mxCell id="HfNNH7PvpU9uhESRJS_I-5" value="" style="endArrow=none;html=1;rounded=0;fontFamily=Helvetica;fontSize=12;fontColor=default;strokeColor=#666666;" edge="1" parent="HfNNH7PvpU9uhESRJS_I-4">
          <mxGeometry width="50" height="50" relative="1" as="geometry">
            <mxPoint y="16.5" as="sourcePoint" />
            <mxPoint x="100" y="17" as="targetPoint" />
          </mxGeometry>
        </mxCell>
        <mxCell id="HfNNH7PvpU9uhESRJS_I-6" value="" style="shape=image;verticalLabelPosition=bottom;labelBackgroundColor=default;verticalAlign=top;aspect=fixed;imageAspect=0;image=data:image/svg+xml,PHN2ZyB4bWxucz0iaHR0cDovL3d3dy53My5vcmcvMjAwMC9zdmciIHZpZXdCb3g9IjAgMCAzODQgNTEyIj48cGF0aCBkPSJNMzQyLjYgMTUwLjZjMTIuNS0xMi41IDEyLjUtMzIuOCAwLTQ1LjNzLTMyLjgtMTIuNS00NS4zIDBMMTkyIDIxMC43IDg2LjYgMTA1LjRjLTEyLjUtMTIuNS0zMi44LTEyLjUtNDUuMyAwcy0xMi41IDMyLjggMCA0NS4zTDE0Ni43IDI1NiA0MS40IDM2MS40Yy0xMi41IDEyLjUtMTIuNSAzMi44IDAgNDUuM3MzMi44IDEyLjUgNDUuMyAwTDE5MiAzMDEuMyAyOTcuNCA0MDYuNmMxMi41IDEyLjUgMzIuOCAxMi41IDQ1LjMgMHMxMi41LTMyLjggMC00NS4zTDIzNy4zIDI1NiAzNDIuNiAxNTAuNnoiIGZpbGw9IiM2NjAwMDAiLz48L3N2Zz4=;" vertex="1" parent="HfNNH7PvpU9uhESRJS_I-4">
          <mxGeometry x="87.71000000000004" y="1.0000000000004547" width="11.25" height="15" as="geometry" />
        </mxCell>
        <mxCell id="HfNNH7PvpU9uhESRJS_I-7" value="" style="shape=image;verticalLabelPosition=bottom;labelBackgroundColor=default;verticalAlign=top;aspect=fixed;imageAspect=0;image=data:image/svg+xml,PHN2ZyB4bWxucz0iaHR0cDovL3d3dy53My5vcmcvMjAwMC9zdmciIHZpZXdCb3g9IjAgMCA0NDggNTEyIj48cGF0aCBkPSJNMjU2IDgwYzAtMTcuNy0xNC4zLTMyLTMyLTMycy0zMiAxNC4zLTMyIDMybDAgMTQ0TDQ4IDIyNGMtMTcuNyAwLTMyIDE0LjMtMzIgMzJzMTQuMyAzMiAzMiAzMmwxNDQgMCAwIDE0NGMwIDE3LjcgMTQuMyAzMiAzMiAzMnMzMi0xNC4zIDMyLTMybDAtMTQ0IDE0NCAwYzE3LjcgMCAzMi0xNC4zIDMyLTMycy0xNC4zLTMyLTMyLTMybC0xNDQgMCAwLTE0NHoiIGZpbGw9IiM2NjAwMDAiLz48L3N2Zz4=;" vertex="1" parent="HfNNH7PvpU9uhESRJS_I-4">
          <mxGeometry x="68.3599999999999" y="1.0000000000004547" width="13.13" height="15" as="geometry" />
        </mxCell>
        <mxCell id="HfNNH7PvpU9uhESRJS_I-8" value="" style="shape=image;verticalLabelPosition=bottom;labelBackgroundColor=default;verticalAlign=top;aspect=fixed;imageAspect=0;image=data:image/svg+xml,PHN2ZyB4bWxucz0iaHR0cDovL3d3dy53My5vcmcvMjAwMC9zdmciIHZpZXdCb3g9IjAgMCA0NDggNTEyIj48cGF0aCBkPSJNMzg0IDgwYzguOCAwIDE2IDcuMiAxNiAxNmwwIDMyMGMwIDguOC03LjIgMTYtMTYgMTZMNjQgNDMyYy04LjggMC0xNi03LjItMTYtMTZMNDggOTZjMC04LjggNy4yLTE2IDE2LTE2bDMyMCAwek02NCAzMkMyOC43IDMyIDAgNjAuNyAwIDk2TDAgNDE2YzAgMzUuMyAyOC43IDY0IDY0IDY0bDMyMCAwYzM1LjMgMCA2NC0yOC43IDY0LTY0bDAtMzIwYzAtMzUuMy0yOC43LTY0LTY0LTY0TDY0IDMyeiIgZmlsbD0iIzZjNzY3ZCIvPjwvc3ZnPg==;" vertex="1" parent="HfNNH7PvpU9uhESRJS_I-4">
          <mxGeometry x="2.9600000000000364" y="-1" width="13.13" height="15" as="geometry" />
        </mxCell>
        <mxCell id="HfNNH7PvpU9uhESRJS_I-9" value="" style="shape=image;verticalLabelPosition=bottom;labelBackgroundColor=default;verticalAlign=top;aspect=fixed;imageAspect=0;image=data:image/svg+xml,PHN2ZyB4bWxucz0iaHR0cDovL3d3dy53My5vcmcvMjAwMC9zdmciIHZpZXdCb3g9IjAgMCA0NDggNTEyIj48cGF0aCBkPSJNMzg0IDgwYzguOCAwIDE2IDcuMiAxNiAxNmwwIDMyMGMwIDguOC03LjIgMTYtMTYgMTZMNjQgNDMyYy04LjggMC0xNi03LjItMTYtMTZMNDggOTZjMC04LjggNy4yLTE2IDE2LTE2bDMyMCAwek02NCAzMkMyOC43IDMyIDAgNjAuNyAwIDk2TDAgNDE2YzAgMzUuMyAyOC43IDY0IDY0IDY0bDMyMCAwYzM1LjMgMCA2NC0yOC43IDY0LTY0bDAtMzIwYzAtMzUuMy0yOC43LTY0LTY0LTY0TDY0IDMyeiIgZmlsbD0iI2ZmZmZmZiIvPjwvc3ZnPg==;" vertex="1" parent="HfNNH7PvpU9uhESRJS_I-2">
          <mxGeometry x="15.766496076046565" y="74" width="13.13" height="15" as="geometry" />
        </mxCell>
        <mxCell id="HfNNH7PvpU9uhESRJS_I-10" value="" style="shape=image;verticalLabelPosition=bottom;labelBackgroundColor=default;verticalAlign=top;aspect=fixed;imageAspect=0;image=data:image/svg+xml,PHN2ZyB4bWxucz0iaHR0cDovL3d3dy53My5vcmcvMjAwMC9zdmciIHZpZXdCb3g9IjAgMCA0NDggNTEyIj48cGF0aCBkPSJNMzg0IDgwYzguOCAwIDE2IDcuMiAxNiAxNmwwIDMyMGMwIDguOC03LjIgMTYtMTYgMTZMNjQgNDMyYy04LjggMC0xNi03LjItMTYtMTZMNDggOTZjMC04LjggNy4yLTE2IDE2LTE2bDMyMCAwek02NCAzMkMyOC43IDMyIDAgNjAuNyAwIDk2TDAgNDE2YzAgMzUuMyAyOC43IDY0IDY0IDY0bDMyMCAwYzM1LjMgMCA2NC0yOC43IDY0LTY0bDAtMzIwYzAtMzUuMy0yOC43LTY0LTY0LTY0TDY0IDMyeiIgZmlsbD0iI2ZmZmZmZiIvPjwvc3ZnPg==;" vertex="1" parent="HfNNH7PvpU9uhESRJS_I-2">
          <mxGeometry x="37.766496076046565" y="104" width="13.13" height="15" as="geometry" />
        </mxCell>
        <mxCell id="HfNNH7PvpU9uhESRJS_I-11" value="&lt;font style=&quot;font-size: 7px;&quot;&gt;{&quot;Springfield&quot;; &quot;North Haverbrook&quot;; &quot;Shelbyville&quot;}&lt;/font&gt;" style="rounded=1;whiteSpace=wrap;html=1;shadow=0;dashed=0;strokeWidth=1;align=left;verticalAlign=top;fontFamily=Helvetica;fontSize=7;fontColor=default;fillColor=default;strokeColor=#666666;spacingLeft=5;" vertex="1" parent="HfNNH7PvpU9uhESRJS_I-2">
          <mxGeometry x="227.77" y="69" width="162.23" height="25" as="geometry" />
        </mxCell>
        <mxCell id="HfNNH7PvpU9uhESRJS_I-12" value="" style="shape=image;verticalLabelPosition=bottom;labelBackgroundColor=default;verticalAlign=top;aspect=fixed;imageAspect=0;image=data:image/svg+xml,PHN2ZyB4bWxucz0iaHR0cDovL3d3dy53My5vcmcvMjAwMC9zdmciIHZpZXdCb3g9IjAgMCAzODQgNTEyIj48cGF0aCBkPSJNMzQyLjYgMTUwLjZjMTIuNS0xMi41IDEyLjUtMzIuOCAwLTQ1LjNzLTMyLjgtMTIuNS00NS4zIDBMMTkyIDIxMC43IDg2LjYgMTA1LjRjLTEyLjUtMTIuNS0zMi44LTEyLjUtNDUuMyAwcy0xMi41IDMyLjggMCA0NS4zTDE0Ni43IDI1NiA0MS40IDM2MS40Yy0xMi41IDEyLjUtMTIuNSAzMi44IDAgNDUuM3MzMi44IDEyLjUgNDUuMyAwTDE5MiAzMDEuMyAyOTcuNCA0MDYuNmMxMi41IDEyLjUgMzIuOCAxMi41IDQ1LjMgMHMxMi41LTMyLjggMC00NS4zTDIzNy4zIDI1NiAzNDIuNiAxNTAuNnoiIGZpbGw9IiM2NjAwMDAiLz48L3N2Zz4=;" vertex="1" parent="HfNNH7PvpU9uhESRJS_I-2">
          <mxGeometry x="440" y="300.00000000000045" width="18.75" height="25" as="geometry" />
        </mxCell>
        <mxCell id="HfNNH7PvpU9uhESRJS_I-13" value="" style="shape=image;verticalLabelPosition=bottom;labelBackgroundColor=default;verticalAlign=top;aspect=fixed;imageAspect=0;image=data:image/svg+xml,PHN2ZyB4bWxucz0iaHR0cDovL3d3dy53My5vcmcvMjAwMC9zdmciIHZpZXdCb3g9IjAgMCA0NDggNTEyIj48cGF0aCBkPSJNNDM4LjYgMTA1LjRjMTIuNSAxMi41IDEyLjUgMzIuOCAwIDQ1LjNsLTI1NiAyNTZjLTEyLjUgMTIuNS0zMi44IDEyLjUtNDUuMyAwbC0xMjgtMTI4Yy0xMi41LTEyLjUtMTIuNS0zMi44IDAtNDUuM3MzMi44LTEyLjUgNDUuMyAwTDE2MCAzMzguNyAzOTMuNCAxMDUuNGMxMi41LTEyLjUgMzIuOC0xMi41IDQ1LjMgMHoiIGZpbGw9IiM2NjAwMDAiLz48L3N2Zz4=;" vertex="1" parent="HfNNH7PvpU9uhESRJS_I-2">
          <mxGeometry x="470.62" y="300" width="21.88" height="25" as="geometry" />
        </mxCell>
        <mxCell id="HfNNH7PvpU9uhESRJS_I-14" value="String" style="html=1;shadow=0;dashed=0;shape=mxgraph.bootstrap.rrect;rSize=5;strokeColor=none;strokeWidth=1;fillColor=#6C767D;fontColor=#ffffff;whiteSpace=wrap;align=left;verticalAlign=middle;fontStyle=0;fontSize=12;spacingLeft=5;spacingRight=20;" vertex="1" parent="HfNNH7PvpU9uhESRJS_I-2">
          <mxGeometry x="120" y="69" width="100" height="25" as="geometry" />
        </mxCell>
        <mxCell id="HfNNH7PvpU9uhESRJS_I-15" value="" style="shape=triangle;direction=south;fillColor=#ffffff;strokeColor=none;perimeter=none;" vertex="1" parent="HfNNH7PvpU9uhESRJS_I-14">
          <mxGeometry x="1" y="0.5" width="10" height="5" relative="1" as="geometry">
            <mxPoint x="-16" y="-1" as="offset" />
          </mxGeometry>
        </mxCell>
        <mxCell id="HfNNH7PvpU9uhESRJS_I-16" value="" style="shape=image;verticalLabelPosition=bottom;labelBackgroundColor=default;verticalAlign=top;aspect=fixed;imageAspect=0;image=data:image/svg+xml,PHN2ZyB4bWxucz0iaHR0cDovL3d3dy53My5vcmcvMjAwMC9zdmciIHZpZXdCb3g9IjAgMCA1NzYgNTEyIj48cGF0aCBkPSJNMTkyIDY0Qzg2IDY0IDAgMTUwIDAgMjU2Uzg2IDQ0OCAxOTIgNDQ4bDE5MiAwYzEwNiAwIDE5Mi04NiAxOTItMTkycy04Ni0xOTItMTkyLTE5MkwxOTIgNjR6bTE5MiA5NmE5NiA5NiAwIDEgMSAwIDE5MiA5NiA5NiAwIDEgMSAwLTE5MnoiIGZpbGw9IiM2NjAwMDAiLz48L3N2Zz4=;" vertex="1" parent="HfNNH7PvpU9uhESRJS_I-2">
          <mxGeometry x="28.89999999999987" y="305" width="16.88" height="15" as="geometry" />
        </mxCell>
        <mxCell id="HfNNH7PvpU9uhESRJS_I-17" value="User-defined Tags" style="rounded=0;whiteSpace=wrap;html=1;shadow=0;dashed=0;strokeWidth=1;align=left;verticalAlign=top;fontFamily=Helvetica;fontSize=8;fontColor=#4D4D4D;fillColor=none;spacingLeft=5;strokeColor=none;" vertex="1" parent="HfNNH7PvpU9uhESRJS_I-2">
          <mxGeometry x="45.91" y="300" width="170" height="30" as="geometry" />
        </mxCell>
        <mxCell id="HfNNH7PvpU9uhESRJS_I-18" value="Vendor" style="html=1;shadow=0;dashed=0;shape=mxgraph.bootstrap.rrect;rSize=5;strokeColor=none;strokeWidth=1;fillColor=#6C767D;fontColor=#ffffff;whiteSpace=wrap;align=left;verticalAlign=middle;fontStyle=0;fontSize=12;spacingLeft=20;spacingRight=20;" vertex="1" parent="HfNNH7PvpU9uhESRJS_I-2">
          <mxGeometry x="10.769999999999982" y="100" width="100" height="25" as="geometry" />
        </mxCell>
        <mxCell id="HfNNH7PvpU9uhESRJS_I-19" value="String" style="html=1;shadow=0;dashed=0;shape=mxgraph.bootstrap.rrect;rSize=5;strokeColor=none;strokeWidth=1;fillColor=#6C767D;fontColor=#ffffff;whiteSpace=wrap;align=left;verticalAlign=middle;fontStyle=0;fontSize=12;spacingLeft=5;spacingRight=20;" vertex="1" parent="HfNNH7PvpU9uhESRJS_I-2">
          <mxGeometry x="120" y="100" width="100" height="25" as="geometry" />
        </mxCell>
        <mxCell id="HfNNH7PvpU9uhESRJS_I-20" value="" style="shape=triangle;direction=south;fillColor=#ffffff;strokeColor=none;perimeter=none;" vertex="1" parent="HfNNH7PvpU9uhESRJS_I-19">
          <mxGeometry x="1" y="0.5" width="10" height="5" relative="1" as="geometry">
            <mxPoint x="-16" y="-1" as="offset" />
          </mxGeometry>
        </mxCell>
        <mxCell id="HfNNH7PvpU9uhESRJS_I-21" value="" style="rounded=1;whiteSpace=wrap;html=1;shadow=0;dashed=0;strokeWidth=1;align=left;verticalAlign=top;fontFamily=Helvetica;fontSize=7;fontColor=default;fillColor=default;strokeColor=#666666;spacingLeft=5;" vertex="1" parent="HfNNH7PvpU9uhESRJS_I-2">
          <mxGeometry x="227.76999999999998" y="100" width="162.23" height="25" as="geometry" />
        </mxCell>
        <mxCell id="HfNNH7PvpU9uhESRJS_I-22" value="" style="shape=image;verticalLabelPosition=bottom;labelBackgroundColor=default;verticalAlign=top;aspect=fixed;imageAspect=0;image=data:image/svg+xml,PHN2ZyB4bWxucz0iaHR0cDovL3d3dy53My5vcmcvMjAwMC9zdmciIHZpZXdCb3g9IjAgMCA0NDggNTEyIj48cGF0aCBkPSJNMzg0IDgwYzguOCAwIDE2IDcuMiAxNiAxNmwwIDMyMGMwIDguOC03LjIgMTYtMTYgMTZMNjQgNDMyYy04LjggMC0xNi03LjItMTYtMTZMNDggOTZjMC04LjggNy4yLTE2IDE2LTE2bDMyMCAwek02NCAzMkMyOC43IDMyIDAgNjAuNyAwIDk2TDAgNDE2YzAgMzUuMyAyOC43IDY0IDY0IDY0bDMyMCAwYzM1LjMgMCA2NC0yOC43IDY0LTY0bDAtMzIwYzAtMzUuMy0yOC43LTY0LTY0LTY0TDY0IDMyeiIgZmlsbD0iI2ZmZmZmZiIvPjwvc3ZnPg==;" vertex="1" parent="HfNNH7PvpU9uhESRJS_I-2">
          <mxGeometry x="15.766496076046565" y="105" width="13.13" height="15" as="geometry" />
        </mxCell>
        <mxCell id="HfNNH7PvpU9uhESRJS_I-23" value="Type" style="text;html=1;align=left;verticalAlign=middle;whiteSpace=wrap;rounded=0;fontFamily=Helvetica;fontSize=12;fontColor=#666666;spacingLeft=5;" vertex="1" parent="HfNNH7PvpU9uhESRJS_I-2">
          <mxGeometry x="120.9" y="40" width="51" height="30" as="geometry" />
        </mxCell>
        <mxCell id="HfNNH7PvpU9uhESRJS_I-24" value="Allowed Values" style="text;html=1;align=left;verticalAlign=middle;whiteSpace=wrap;rounded=0;fontFamily=Helvetica;fontSize=12;fontColor=#666666;spacingLeft=5;" vertex="1" parent="HfNNH7PvpU9uhESRJS_I-2">
          <mxGeometry x="227.76999999999998" y="40" width="101" height="30" as="geometry" />
        </mxCell>
        <mxCell id="HfNNH7PvpU9uhESRJS_I-25" value="Decimal" style="html=1;shadow=0;dashed=0;shape=mxgraph.bootstrap.rrect;rSize=5;strokeColor=none;strokeWidth=1;fillColor=#6C767D;fontColor=#ffffff;whiteSpace=wrap;align=left;verticalAlign=middle;fontStyle=0;fontSize=12;spacingLeft=5;spacingRight=20;" vertex="1" parent="HfNNH7PvpU9uhESRJS_I-2">
          <mxGeometry x="120.9" y="130" width="100" height="25" as="geometry" />
        </mxCell>
        <mxCell id="HfNNH7PvpU9uhESRJS_I-26" value="" style="shape=triangle;direction=south;fillColor=#ffffff;strokeColor=none;perimeter=none;" vertex="1" parent="HfNNH7PvpU9uhESRJS_I-25">
          <mxGeometry x="1" y="0.5" width="10" height="5" relative="1" as="geometry">
            <mxPoint x="-16" y="-1" as="offset" />
          </mxGeometry>
        </mxCell>
        <mxCell id="HfNNH7PvpU9uhESRJS_I-29" value="Develop" style="html=1;shadow=0;dashed=0;shape=mxgraph.bootstrap.rrect;rSize=5;strokeColor=none;strokeWidth=1;fillColor=#6C767D;fontColor=#ffffff;whiteSpace=wrap;align=left;verticalAlign=middle;fontStyle=0;fontSize=12;spacingLeft=20;spacingRight=20;" vertex="1" parent="HfNNH7PvpU9uhESRJS_I-2">
          <mxGeometry x="10.769999999999982" y="130" width="100" height="25" as="geometry" />
        </mxCell>
        <mxCell id="HfNNH7PvpU9uhESRJS_I-30" value="" style="shape=image;verticalLabelPosition=bottom;labelBackgroundColor=default;verticalAlign=top;aspect=fixed;imageAspect=0;image=data:image/svg+xml,PHN2ZyB4bWxucz0iaHR0cDovL3d3dy53My5vcmcvMjAwMC9zdmciIHZpZXdCb3g9IjAgMCA0NDggNTEyIj48cGF0aCBkPSJNMzg0IDgwYzguOCAwIDE2IDcuMiAxNiAxNmwwIDMyMGMwIDguOC03LjIgMTYtMTYgMTZMNjQgNDMyYy04LjggMC0xNi03LjItMTYtMTZMNDggOTZjMC04LjggNy4yLTE2IDE2LTE2bDMyMCAwek02NCAzMkMyOC43IDMyIDAgNjAuNyAwIDk2TDAgNDE2YzAgMzUuMyAyOC43IDY0IDY0IDY0bDMyMCAwYzM1LjMgMCA2NC0yOC43IDY0LTY0bDAtMzIwYzAtMzUuMy0yOC43LTY0LTY0LTY0TDY0IDMyeiIgZmlsbD0iI2ZmZmZmZiIvPjwvc3ZnPg==;" vertex="1" parent="HfNNH7PvpU9uhESRJS_I-2">
          <mxGeometry x="15.766496076046565" y="135" width="13.13" height="15" as="geometry" />
        </mxCell>
        <mxCell id="HfNNH7PvpU9uhESRJS_I-31" value="Prototype" style="html=1;shadow=0;dashed=0;shape=mxgraph.bootstrap.rrect;rSize=5;strokeColor=none;strokeWidth=1;fillColor=#6C767D;fontColor=#ffffff;whiteSpace=wrap;align=left;verticalAlign=middle;fontStyle=0;fontSize=12;spacingLeft=20;spacingRight=20;" vertex="1" parent="HfNNH7PvpU9uhESRJS_I-2">
          <mxGeometry x="10.769999999999982" y="160" width="100" height="25" as="geometry" />
        </mxCell>
        <mxCell id="HfNNH7PvpU9uhESRJS_I-32" value="Decimal" style="html=1;shadow=0;dashed=0;shape=mxgraph.bootstrap.rrect;rSize=5;strokeColor=none;strokeWidth=1;fillColor=#6C767D;fontColor=#ffffff;whiteSpace=wrap;align=left;verticalAlign=middle;fontStyle=0;fontSize=12;spacingLeft=5;spacingRight=20;" vertex="1" parent="HfNNH7PvpU9uhESRJS_I-2">
          <mxGeometry x="120.90000000000009" y="160" width="100" height="25" as="geometry" />
        </mxCell>
        <mxCell id="HfNNH7PvpU9uhESRJS_I-33" value="" style="shape=triangle;direction=south;fillColor=#ffffff;strokeColor=none;perimeter=none;" vertex="1" parent="HfNNH7PvpU9uhESRJS_I-32">
          <mxGeometry x="1" y="0.5" width="10" height="5" relative="1" as="geometry">
            <mxPoint x="-16" y="-1" as="offset" />
          </mxGeometry>
        </mxCell>
        <mxCell id="HfNNH7PvpU9uhESRJS_I-34" value="Ideate" style="html=1;shadow=0;dashed=0;shape=mxgraph.bootstrap.rrect;rSize=5;strokeColor=none;strokeWidth=1;fillColor=#6C767D;fontColor=#ffffff;whiteSpace=wrap;align=left;verticalAlign=middle;fontStyle=0;fontSize=12;spacingLeft=20;spacingRight=20;" vertex="1" parent="HfNNH7PvpU9uhESRJS_I-2">
          <mxGeometry x="10.769999999999982" y="190" width="100" height="25" as="geometry" />
        </mxCell>
        <mxCell id="HfNNH7PvpU9uhESRJS_I-35" value="Decimal" style="html=1;shadow=0;dashed=0;shape=mxgraph.bootstrap.rrect;rSize=5;strokeColor=none;strokeWidth=1;fillColor=#6C767D;fontColor=#ffffff;whiteSpace=wrap;align=left;verticalAlign=middle;fontStyle=0;fontSize=12;spacingLeft=5;spacingRight=20;" vertex="1" parent="HfNNH7PvpU9uhESRJS_I-2">
          <mxGeometry x="120.90000000000009" y="190" width="100" height="25" as="geometry" />
        </mxCell>
        <mxCell id="HfNNH7PvpU9uhESRJS_I-36" value="" style="shape=triangle;direction=south;fillColor=#ffffff;strokeColor=none;perimeter=none;" vertex="1" parent="HfNNH7PvpU9uhESRJS_I-35">
          <mxGeometry x="1" y="0.5" width="10" height="5" relative="1" as="geometry">
            <mxPoint x="-16" y="-1" as="offset" />
          </mxGeometry>
        </mxCell>
        <mxCell id="HfNNH7PvpU9uhESRJS_I-37" value="Decimal" style="html=1;shadow=0;dashed=0;shape=mxgraph.bootstrap.rrect;rSize=5;strokeColor=none;strokeWidth=1;fillColor=#6C767D;fontColor=#ffffff;whiteSpace=wrap;align=left;verticalAlign=middle;fontStyle=0;fontSize=12;spacingLeft=5;spacingRight=20;" vertex="1" parent="HfNNH7PvpU9uhESRJS_I-2">
          <mxGeometry x="120.90000000000009" y="220" width="100" height="25" as="geometry" />
        </mxCell>
        <mxCell id="HfNNH7PvpU9uhESRJS_I-38" value="" style="shape=triangle;direction=south;fillColor=#ffffff;strokeColor=none;perimeter=none;" vertex="1" parent="HfNNH7PvpU9uhESRJS_I-37">
          <mxGeometry x="1" y="0.5" width="10" height="5" relative="1" as="geometry">
            <mxPoint x="-16" y="-1" as="offset" />
          </mxGeometry>
        </mxCell>
        <mxCell id="HfNNH7PvpU9uhESRJS_I-39" value="Sustain" style="html=1;shadow=0;dashed=0;shape=mxgraph.bootstrap.rrect;rSize=5;strokeColor=none;strokeWidth=1;fillColor=#6C767D;fontColor=#ffffff;whiteSpace=wrap;align=left;verticalAlign=middle;fontStyle=0;fontSize=12;spacingLeft=20;spacingRight=20;" vertex="1" parent="HfNNH7PvpU9uhESRJS_I-2">
          <mxGeometry x="10.769999999999982" y="220" width="100" height="25" as="geometry" />
        </mxCell>
        <mxCell id="HfNNH7PvpU9uhESRJS_I-40" value="" style="shape=image;verticalLabelPosition=bottom;labelBackgroundColor=default;verticalAlign=top;aspect=fixed;imageAspect=0;image=data:image/svg+xml,PHN2ZyB4bWxucz0iaHR0cDovL3d3dy53My5vcmcvMjAwMC9zdmciIHZpZXdCb3g9IjAgMCA0NDggNTEyIj48cGF0aCBkPSJNMzg0IDgwYzguOCAwIDE2IDcuMiAxNiAxNmwwIDMyMGMwIDguOC03LjIgMTYtMTYgMTZMNjQgNDMyYy04LjggMC0xNi03LjItMTYtMTZMNDggOTZjMC04LjggNy4yLTE2IDE2LTE2bDMyMCAwek02NCAzMkMyOC43IDMyIDAgNjAuNyAwIDk2TDAgNDE2YzAgMzUuMyAyOC43IDY0IDY0IDY0bDMyMCAwYzM1LjMgMCA2NC0yOC43IDY0LTY0bDAtMzIwYzAtMzUuMy0yOC43LTY0LTY0LTY0TDY0IDMyeiIgZmlsbD0iI2ZmZmZmZiIvPjwvc3ZnPg==;" vertex="1" parent="HfNNH7PvpU9uhESRJS_I-2">
          <mxGeometry x="15.766496076046565" y="226" width="13.13" height="15" as="geometry" />
        </mxCell>
        <mxCell id="HfNNH7PvpU9uhESRJS_I-41" value="" style="shape=image;verticalLabelPosition=bottom;labelBackgroundColor=default;verticalAlign=top;aspect=fixed;imageAspect=0;image=data:image/svg+xml,PHN2ZyB4bWxucz0iaHR0cDovL3d3dy53My5vcmcvMjAwMC9zdmciIHZpZXdCb3g9IjAgMCA0NDggNTEyIj48cGF0aCBkPSJNMzg0IDgwYzguOCAwIDE2IDcuMiAxNiAxNmwwIDMyMGMwIDguOC03LjIgMTYtMTYgMTZMNjQgNDMyYy04LjggMC0xNi03LjItMTYtMTZMNDggOTZjMC04LjggNy4yLTE2IDE2LTE2bDMyMCAwek02NCAzMkMyOC43IDMyIDAgNjAuNyAwIDk2TDAgNDE2YzAgMzUuMyAyOC43IDY0IDY0IDY0bDMyMCAwYzM1LjMgMCA2NC0yOC43IDY0LTY0bDAtMzIwYzAtMzUuMy0yOC43LTY0LTY0LTY0TDY0IDMyeiIgZmlsbD0iI2ZmZmZmZiIvPjwvc3ZnPg==;" vertex="1" parent="HfNNH7PvpU9uhESRJS_I-2">
          <mxGeometry x="15.766496076046565" y="196" width="13.13" height="15" as="geometry" />
        </mxCell>
        <mxCell id="HfNNH7PvpU9uhESRJS_I-42" value="" style="shape=image;verticalLabelPosition=bottom;labelBackgroundColor=default;verticalAlign=top;aspect=fixed;imageAspect=0;image=data:image/svg+xml,PHN2ZyB4bWxucz0iaHR0cDovL3d3dy53My5vcmcvMjAwMC9zdmciIHZpZXdCb3g9IjAgMCA0NDggNTEyIj48cGF0aCBkPSJNMzg0IDgwYzguOCAwIDE2IDcuMiAxNiAxNmwwIDMyMGMwIDguOC03LjIgMTYtMTYgMTZMNjQgNDMyYy04LjggMC0xNi03LjItMTYtMTZMNDggOTZjMC04LjggNy4yLTE2IDE2LTE2bDMyMCAwek02NCAzMkMyOC43IDMyIDAgNjAuNyAwIDk2TDAgNDE2YzAgMzUuMyAyOC43IDY0IDY0IDY0bDMyMCAwYzM1LjMgMCA2NC0yOC43IDY0LTY0bDAtMzIwYzAtMzUuMy0yOC43LTY0LTY0LTY0TDY0IDMyeiIgZmlsbD0iI2ZmZmZmZiIvPjwvc3ZnPg==;" vertex="1" parent="HfNNH7PvpU9uhESRJS_I-2">
          <mxGeometry x="15.766496076046565" y="165" width="13.13" height="15" as="geometry" />
        </mxCell>
        <mxCell id="HfNNH7PvpU9uhESRJS_I-43" value="" style="rounded=1;whiteSpace=wrap;html=1;shadow=0;dashed=0;strokeWidth=1;align=left;verticalAlign=top;fontFamily=Helvetica;fontSize=7;fontColor=default;fillColor=default;strokeColor=#666666;spacingLeft=5;" vertex="1" parent="HfNNH7PvpU9uhESRJS_I-2">
          <mxGeometry x="227.76999999999998" y="130" width="162.23" height="25" as="geometry" />
        </mxCell>
        <mxCell id="HfNNH7PvpU9uhESRJS_I-44" value="" style="rounded=1;whiteSpace=wrap;html=1;shadow=0;dashed=0;strokeWidth=1;align=left;verticalAlign=top;fontFamily=Helvetica;fontSize=7;fontColor=default;fillColor=default;strokeColor=#666666;spacingLeft=5;" vertex="1" parent="HfNNH7PvpU9uhESRJS_I-2">
          <mxGeometry x="227.76999999999998" y="160" width="162.23" height="25" as="geometry" />
        </mxCell>
        <mxCell id="HfNNH7PvpU9uhESRJS_I-45" value="" style="rounded=1;whiteSpace=wrap;html=1;shadow=0;dashed=0;strokeWidth=1;align=left;verticalAlign=top;fontFamily=Helvetica;fontSize=7;fontColor=default;fillColor=default;strokeColor=#666666;spacingLeft=5;" vertex="1" parent="HfNNH7PvpU9uhESRJS_I-2">
          <mxGeometry x="227.76999999999998" y="190" width="162.23" height="25" as="geometry" />
        </mxCell>
        <mxCell id="HfNNH7PvpU9uhESRJS_I-46" value="" style="rounded=1;whiteSpace=wrap;html=1;shadow=0;dashed=0;strokeWidth=1;align=left;verticalAlign=top;fontFamily=Helvetica;fontSize=7;fontColor=default;fillColor=default;strokeColor=#666666;spacingLeft=5;" vertex="1" parent="HfNNH7PvpU9uhESRJS_I-2">
          <mxGeometry x="227.76999999999998" y="220" width="162.23" height="25" as="geometry" />
        </mxCell>
      </root>
    </mxGraphModel>
  </diagram>
</mxfile>
